<svg xmlns="http://www.w3.org/2000/svg" viewBox="0 0 512 512">
  <defs>
    <linearGradient id="bg" x1="0%" y1="0%" x2="100%" y2="100%">
      <stop offset="0%" stop-color="#356E38" />
      <stop offset="100%" stop-color="#1F4320" />
    </linearGradient>
  </defs>
  <rect width="512" height="512" rx="120" fill="url(#bg)" />
  <path d="M152 176h176c0 24 8 48 22 68 16 23 24 50 24 78 0 41-17 77-45 102-28 24-66 38-107 38s-79-14-107-38c-28-25-45-61-45-102 0-28 8-55 24-78 14-20 22-44 22-68h36c0 32-10 63-29 90-10 14-15 33-15 56 0 31 12 56 31 73 20 17 48 28 83 28s63-11 83-28c19-17 31-42 31-73 0-23-5-42-15-56-19-27-29-58-29-90H152Z" fill="#F7F3EA" />
  <path d="M338 198h24c35 0 64 28 64 62s-29 62-64 62h-18v-32h18c17 0 30-13 30-30s-13-30-30-30h-24v-32Z" fill="#D6C3A3" />
  <rect x="132" y="154" width="216" height="34" rx="17" fill="#F3DEC4" />
  <path d="M222 122c-12 18-12 34 0 48m44-54c-12 18-12 34 0 48m44-54c-12 18-12 34 0 48" fill="none" stroke="#F3DEC4" stroke-linecap="round" stroke-width="18" />
  <path d="M156 302c28 24 63 36 106 36s78-12 106-36" fill="none" stroke="#D9A25B" stroke-linecap="round" stroke-width="18" />
</svg>
